<svg width="49" height="16" viewBox="0 0 49 16" fill="none" xmlns="http://www.w3.org/2000/svg">
<rect x="0.300781" y="0.532227" width="48" height="14.9781" rx="7.18115" fill="#FF9501" fill-opacity="0.15"/>
<path fill-rule="evenodd" clip-rule="evenodd" d="M9.8008 10.522C9.70134 10.522 9.60596 10.4825 9.53563 10.4121C9.4653 10.3418 9.4258 10.2464 9.4258 10.147L9.4258 5.80222L7.8163 7.41247C7.78143 7.44734 7.74004 7.475 7.69448 7.49386C7.64893 7.51273 7.6001 7.52245 7.5508 7.52245C7.50149 7.52245 7.45266 7.51273 7.40711 7.49386C7.36155 7.475 7.32016 7.44734 7.2853 7.41247C7.25043 7.37761 7.22277 7.33621 7.2039 7.29066C7.18503 7.24511 7.17532 7.19628 7.17532 7.14697C7.17532 7.09766 7.18503 7.04884 7.2039 7.00328C7.22277 6.95773 7.25043 6.91634 7.2853 6.88147L9.5353 4.63147C9.57013 4.59655 9.61151 4.56884 9.65707 4.54994C9.70263 4.53103 9.75147 4.5213 9.8008 4.5213C9.85012 4.5213 9.89896 4.53103 9.94452 4.54994C9.99008 4.56884 10.0315 4.59655 10.0663 4.63147L12.3163 6.88147C12.3512 6.91634 12.3788 6.95773 12.3977 7.00328C12.4166 7.04884 12.4263 7.09766 12.4263 7.14697C12.4263 7.19628 12.4166 7.24511 12.3977 7.29066C12.3788 7.33622 12.3512 7.37761 12.3163 7.41247C12.2459 7.48289 12.1504 7.52245 12.0508 7.52245C12.0015 7.52245 11.9527 7.51273 11.9071 7.49387C11.8616 7.475 11.8202 7.44734 11.7853 7.41247L10.1758 5.80222L10.1758 10.147C10.1758 10.2464 10.1363 10.3418 10.066 10.4121C9.99563 10.4825 9.90025 10.522 9.8008 10.522Z" fill="#FF9138"/>
<path d="M18.9528 7.62548C19.2941 7.72148 19.5528 7.88682 19.7288 8.12148C19.9101 8.35615 20.0008 8.64682 20.0008 8.99348C20.0008 9.48415 19.8354 9.87082 19.5048 10.1535C19.1741 10.4362 18.7234 10.5775 18.1528 10.5775C17.8061 10.5775 17.4728 10.5188 17.1528 10.4015C16.8381 10.2842 16.5714 10.1242 16.3528 9.92148C16.2674 9.84148 16.2248 9.75082 16.2248 9.64948C16.2248 9.56948 16.2461 9.50282 16.2888 9.44948C16.3314 9.39615 16.3821 9.36948 16.4408 9.36948C16.5154 9.36948 16.5901 9.39882 16.6648 9.45748C16.9101 9.65482 17.1501 9.79882 17.3848 9.88948C17.6194 9.98015 17.8728 10.0255 18.1448 10.0255C18.5394 10.0255 18.8381 9.93482 19.0408 9.75348C19.2488 9.57215 19.3528 9.31082 19.3528 8.96948C19.3528 8.28148 18.9208 7.93748 18.0568 7.93748H17.6328C17.5474 7.93748 17.4781 7.91082 17.4248 7.85748C17.3768 7.79882 17.3528 7.73215 17.3528 7.65748C17.3528 7.58282 17.3768 7.51882 17.4248 7.46548C17.4781 7.41215 17.5474 7.38548 17.6328 7.38548H17.9288C18.3448 7.38548 18.6648 7.29482 18.8888 7.11348C19.1128 6.92682 19.2248 6.66015 19.2248 6.31348C19.2248 6.00948 19.1341 5.77748 18.9528 5.61748C18.7714 5.45215 18.5154 5.36948 18.1848 5.36948C17.9341 5.36948 17.6914 5.41748 17.4568 5.51348C17.2221 5.60415 16.9874 5.74548 16.7528 5.93748C16.6781 5.99615 16.6034 6.02548 16.5288 6.02548C16.4701 6.02548 16.4194 5.99882 16.3768 5.94548C16.3341 5.89215 16.3128 5.82548 16.3128 5.74548C16.3128 5.64415 16.3554 5.55348 16.4408 5.47348C16.6594 5.27082 16.9234 5.11082 17.2328 4.99348C17.5474 4.87615 17.8701 4.81748 18.2008 4.81748C18.7128 4.81748 19.1208 4.94815 19.4248 5.20948C19.7288 5.47082 19.8781 5.82282 19.8728 6.26548C19.8674 6.58548 19.7821 6.86548 19.6168 7.10548C19.4568 7.34548 19.2354 7.51882 18.9528 7.62548ZM24.6617 9.96948C24.7577 9.96948 24.8323 9.99348 24.8857 10.0415C24.939 10.0895 24.9657 10.1562 24.9657 10.2415C24.9657 10.4282 24.8643 10.5215 24.6617 10.5215H21.5257C21.435 10.5215 21.3603 10.4948 21.3017 10.4415C21.243 10.3828 21.2137 10.3135 21.2137 10.2335C21.2137 10.1322 21.251 10.0442 21.3257 9.96948L23.2537 7.84948C23.5203 7.55082 23.7123 7.28415 23.8297 7.04948C23.9523 6.80948 24.0137 6.56948 24.0137 6.32948C24.0137 6.02015 23.923 5.78282 23.7417 5.61748C23.5657 5.45215 23.315 5.36948 22.9897 5.36948C22.7337 5.36948 22.4883 5.41748 22.2537 5.51348C22.019 5.60415 21.7843 5.74548 21.5497 5.93748C21.4697 6.00148 21.395 6.03348 21.3257 6.03348C21.267 6.03348 21.2163 6.00682 21.1737 5.95348C21.131 5.89482 21.1097 5.82548 21.1097 5.74548C21.1097 5.63348 21.1523 5.54282 21.2377 5.47348C21.4563 5.27082 21.723 5.11082 22.0377 4.99348C22.3523 4.87615 22.675 4.81748 23.0057 4.81748C23.5123 4.81748 23.915 4.95082 24.2137 5.21748C24.5177 5.48415 24.6697 5.84415 24.6697 6.29748C24.6697 6.62282 24.595 6.93482 24.4457 7.23348C24.3017 7.53215 24.0617 7.86548 23.7257 8.23348L22.1257 9.96948H24.6617ZM26.2985 9.65748C26.4319 9.65748 26.5385 9.71082 26.6185 9.81748C26.7039 9.91882 26.7465 10.0735 26.7465 10.2815C26.7465 10.7028 26.6105 11.0575 26.3385 11.3455C26.2852 11.4042 26.2239 11.4335 26.1545 11.4335C26.1012 11.4335 26.0532 11.4122 26.0105 11.3695C25.9679 11.3322 25.9465 11.2868 25.9465 11.2335C25.9465 11.1748 25.9679 11.1242 26.0105 11.0815C26.1492 10.9375 26.2372 10.7588 26.2745 10.5455C26.1572 10.5348 26.0585 10.4922 25.9785 10.4175C25.9039 10.3375 25.8665 10.2362 25.8665 10.1135C25.8665 9.98015 25.9065 9.87082 25.9865 9.78548C26.0719 9.70015 26.1759 9.65748 26.2985 9.65748ZM31.4867 8.75348C31.5827 8.75348 31.6573 8.78015 31.7107 8.83348C31.764 8.88148 31.7907 8.94548 31.7907 9.02548C31.7907 9.20682 31.6893 9.29748 31.4867 9.29748H30.8867V10.2255C30.8867 10.3322 30.8547 10.4148 30.7907 10.4735C30.732 10.5322 30.6547 10.5615 30.5587 10.5615C30.4627 10.5615 30.3853 10.5322 30.3267 10.4735C30.268 10.4148 30.2387 10.3322 30.2387 10.2255V9.29748H27.8707C27.7747 9.29748 27.7 9.27082 27.6467 9.21748C27.5933 9.16415 27.5667 9.09748 27.5667 9.01748C27.5667 8.94282 27.596 8.86015 27.6547 8.76948L30.2707 4.98548C30.3453 4.88948 30.4413 4.84148 30.5587 4.84148C30.6493 4.84148 30.7267 4.87082 30.7907 4.92948C30.8547 4.98815 30.8867 5.07082 30.8867 5.17748V8.75348H31.4867ZM28.3107 8.75348H30.2387V5.97748L28.3107 8.75348ZM35.9555 9.96948C36.0515 9.96948 36.1262 9.99348 36.1795 10.0415C36.2329 10.0895 36.2595 10.1562 36.2595 10.2415C36.2595 10.3322 36.2329 10.4015 36.1795 10.4495C36.1315 10.4975 36.0569 10.5215 35.9555 10.5215H33.3075C33.2062 10.5215 33.1289 10.4975 33.0755 10.4495C33.0275 10.4015 33.0035 10.3322 33.0035 10.2415C33.0035 10.1562 33.0302 10.0895 33.0835 10.0415C33.1369 9.99348 33.2115 9.96948 33.3075 9.96948H34.2995V5.68148L33.4275 6.24948C33.3849 6.27615 33.3422 6.28948 33.2995 6.28948C33.2249 6.28948 33.1582 6.25482 33.0995 6.18548C33.0462 6.11615 33.0195 6.04148 33.0195 5.96148C33.0195 5.84948 33.0622 5.76948 33.1475 5.72148L34.3635 4.92948C34.4542 4.87082 34.5475 4.84148 34.6435 4.84148C34.7342 4.84148 34.8089 4.87082 34.8675 4.92948C34.9262 4.98815 34.9555 5.07082 34.9555 5.17748V9.96948H35.9555ZM39.2404 10.4815C39.1711 10.5988 39.0831 10.6575 38.9764 10.6575C38.9071 10.6575 38.8457 10.6335 38.7924 10.5855C38.7444 10.5375 38.7204 10.4735 38.7204 10.3935C38.7204 10.3295 38.7391 10.2682 38.7764 10.2095L41.8324 4.92148C41.9017 4.80415 41.9897 4.74548 42.0964 4.74548C42.1657 4.74548 42.2244 4.77215 42.2724 4.82548C42.3257 4.87348 42.3524 4.93482 42.3524 5.00948C42.3524 5.06815 42.3364 5.12948 42.3044 5.19348L39.2404 10.4815ZM38.6164 8.26548C38.1897 8.26548 37.8564 8.12148 37.6164 7.83348C37.3764 7.54015 37.2564 7.10815 37.2564 6.53748C37.2564 5.97215 37.3764 5.54548 37.6164 5.25748C37.8564 4.96415 38.1897 4.81748 38.6164 4.81748C39.0431 4.81748 39.3764 4.96415 39.6164 5.25748C39.8564 5.54548 39.9764 5.97215 39.9764 6.53748C39.9764 7.10815 39.8564 7.54015 39.6164 7.83348C39.3764 8.12148 39.0431 8.26548 38.6164 8.26548ZM38.6164 7.80148C38.8777 7.80148 39.0697 7.70015 39.1924 7.49748C39.3204 7.29482 39.3844 6.97482 39.3844 6.53748C39.3844 6.10548 39.3204 5.78815 39.1924 5.58548C39.0697 5.38282 38.8777 5.28148 38.6164 5.28148C38.3551 5.28148 38.1604 5.38282 38.0324 5.58548C37.9044 5.78815 37.8404 6.10548 37.8404 6.53748C37.8404 6.97482 37.9044 7.29482 38.0324 7.49748C38.1604 7.70015 38.3551 7.80148 38.6164 7.80148ZM42.4564 10.5775C42.0297 10.5775 41.6964 10.4335 41.4564 10.1455C41.2164 9.85215 41.0964 9.42015 41.0964 8.84948C41.0964 8.28415 41.2164 7.85748 41.4564 7.56948C41.6964 7.27615 42.0297 7.12948 42.4564 7.12948C42.8884 7.12948 43.2217 7.27348 43.4564 7.56148C43.6964 7.84948 43.8164 8.27882 43.8164 8.84948C43.8164 9.42015 43.6964 9.85215 43.4564 10.1455C43.2217 10.4335 42.8884 10.5775 42.4564 10.5775ZM42.4564 10.1135C42.7231 10.1135 42.9177 10.0148 43.0404 9.81748C43.1684 9.61482 43.2324 9.29215 43.2324 8.84948C43.2324 8.41748 43.1684 8.10015 43.0404 7.89748C42.9124 7.69482 42.7177 7.59348 42.4564 7.59348C42.1951 7.59348 42.0004 7.69482 41.8724 7.89748C41.7497 8.10015 41.6884 8.41748 41.6884 8.84948C41.6884 9.28682 41.7497 9.60682 41.8724 9.80948C42.0004 10.0122 42.1951 10.1135 42.4564 10.1135Z" fill="#FF9138"/>
</svg>
