<svg width="49" height="16" viewBox="0 0 49 16" fill="none" xmlns="http://www.w3.org/2000/svg">
<rect x="0.300781" y="0.532227" width="48" height="14.9781" rx="7.18115" fill="#FF9501" fill-opacity="0.15"/>
<path fill-rule="evenodd" clip-rule="evenodd" d="M9.8008 10.522C9.70134 10.522 9.60596 10.4825 9.53563 10.4121C9.4653 10.3418 9.4258 10.2464 9.4258 10.147L9.4258 5.80222L7.8163 7.41247C7.78143 7.44734 7.74004 7.475 7.69448 7.49386C7.64893 7.51273 7.6001 7.52245 7.5508 7.52245C7.50149 7.52245 7.45266 7.51273 7.40711 7.49386C7.36155 7.475 7.32016 7.44734 7.2853 7.41247C7.25043 7.37761 7.22277 7.33621 7.2039 7.29066C7.18503 7.24511 7.17532 7.19628 7.17532 7.14697C7.17532 7.09766 7.18503 7.04884 7.2039 7.00328C7.22277 6.95773 7.25043 6.91634 7.2853 6.88147L9.5353 4.63147C9.57013 4.59655 9.61151 4.56884 9.65707 4.54994C9.70263 4.53103 9.75147 4.5213 9.8008 4.5213C9.85012 4.5213 9.89896 4.53103 9.94452 4.54994C9.99008 4.56884 10.0315 4.59655 10.0663 4.63147L12.3163 6.88147C12.3512 6.91634 12.3788 6.95773 12.3977 7.00328C12.4166 7.04884 12.4263 7.09766 12.4263 7.14697C12.4263 7.19628 12.4166 7.24511 12.3977 7.29066C12.3788 7.33622 12.3512 7.37761 12.3163 7.41247C12.2459 7.48289 12.1504 7.52245 12.0508 7.52245C12.0015 7.52245 11.9527 7.51273 11.9071 7.49387C11.8616 7.475 11.8202 7.44734 11.7853 7.41247L10.1758 5.80222L10.1758 10.147C10.1758 10.2464 10.1363 10.3418 10.066 10.4121C9.99563 10.4825 9.90025 10.522 9.8008 10.522Z" fill="#FF9138"/>
<path d="M18.4168 6.98548C18.7741 6.98548 19.0861 7.06015 19.3528 7.20948C19.6248 7.35882 19.8328 7.56948 19.9768 7.84148C20.1261 8.10815 20.2008 8.41748 20.2008 8.76948C20.2008 9.12148 20.1208 9.43615 19.9608 9.71348C19.8008 9.98548 19.5768 10.1988 19.2888 10.3535C19.0061 10.5028 18.6781 10.5775 18.3048 10.5775C17.9741 10.5775 17.6514 10.5188 17.3368 10.4015C17.0221 10.2842 16.7554 10.1242 16.5368 9.92148C16.4514 9.84148 16.4088 9.75082 16.4088 9.64948C16.4088 9.56948 16.4301 9.50282 16.4728 9.44948C16.5154 9.39615 16.5661 9.36948 16.6248 9.36948C16.6994 9.36948 16.7741 9.39882 16.8488 9.45748C17.0834 9.64948 17.3181 9.79348 17.5528 9.88948C17.7874 9.98015 18.0328 10.0255 18.2888 10.0255C18.6834 10.0255 18.9928 9.91348 19.2168 9.68948C19.4408 9.46548 19.5528 9.16148 19.5528 8.77748C19.5528 8.40415 19.4408 8.10282 19.2168 7.87348C18.9928 7.64415 18.6914 7.52948 18.3128 7.52948C17.8274 7.52948 17.4328 7.71615 17.1288 8.08948C17.0541 8.16948 16.9634 8.20948 16.8568 8.20948C16.7821 8.20948 16.7181 8.18815 16.6648 8.14548C16.6168 8.09748 16.5928 8.03348 16.5928 7.95348V5.19348C16.5928 5.10282 16.6194 5.02815 16.6728 4.96948C16.7314 4.91082 16.8114 4.88148 16.9128 4.88148H19.7288C19.8248 4.88148 19.8994 4.90548 19.9528 4.95348C20.0114 5.00148 20.0408 5.06815 20.0408 5.15348C20.0408 5.23882 20.0114 5.30548 19.9528 5.35348C19.8994 5.40148 19.8248 5.42548 19.7288 5.42548H17.2408V7.43348C17.3901 7.28948 17.5634 7.18015 17.7608 7.10548C17.9634 7.02548 18.1821 6.98548 18.4168 6.98548ZM23.2297 6.97748C23.571 6.97748 23.875 7.05215 24.1417 7.20148C24.4083 7.35082 24.6163 7.56148 24.7657 7.83348C24.915 8.10548 24.9897 8.41748 24.9897 8.76948C24.9897 9.11615 24.9123 9.42815 24.7577 9.70548C24.603 9.98282 24.387 10.1988 24.1097 10.3535C23.8323 10.5082 23.5203 10.5855 23.1737 10.5855C22.491 10.5855 21.963 10.3482 21.5897 9.87348C21.2217 9.39882 21.0377 8.72148 21.0377 7.84148C21.0377 7.21215 21.123 6.67082 21.2937 6.21748C21.4643 5.76415 21.7123 5.41748 22.0377 5.17748C22.363 4.93748 22.7497 4.81748 23.1977 4.81748C23.5017 4.81748 23.803 4.87615 24.1017 4.99348C24.4057 5.11082 24.6643 5.27082 24.8777 5.47348C24.9683 5.55882 25.0137 5.64948 25.0137 5.74548C25.0137 5.82548 24.9923 5.89215 24.9497 5.94548C24.907 5.99882 24.8563 6.02548 24.7977 6.02548C24.723 6.02548 24.6457 5.99615 24.5657 5.93748C24.1017 5.55882 23.651 5.36948 23.2137 5.36948C22.739 5.36948 22.3683 5.58548 22.1017 6.01748C21.835 6.44948 21.7017 7.05482 21.7017 7.83348V7.93748C21.8243 7.63882 22.0217 7.40415 22.2937 7.23348C22.571 7.06282 22.883 6.97748 23.2297 6.97748ZM23.1417 10.0335C23.5043 10.0335 23.795 9.91882 24.0137 9.68948C24.2323 9.46015 24.3417 9.15615 24.3417 8.77748C24.3417 8.39882 24.2297 8.09748 24.0057 7.87348C23.787 7.64415 23.4963 7.52948 23.1337 7.52948C22.7657 7.52948 22.4643 7.64682 22.2297 7.88148C22.0003 8.11082 21.8857 8.40948 21.8857 8.77748C21.8857 9.15082 22.0003 9.45482 22.2297 9.68948C22.4643 9.91882 22.7683 10.0335 23.1417 10.0335ZM26.2907 9.65748C26.4241 9.65748 26.5307 9.71082 26.6107 9.81748C26.6961 9.91882 26.7387 10.0735 26.7387 10.2815C26.7387 10.7028 26.6027 11.0575 26.3307 11.3455C26.2774 11.4042 26.2161 11.4335 26.1467 11.4335C26.0934 11.4335 26.0454 11.4122 26.0027 11.3695C25.9601 11.3322 25.9387 11.2868 25.9387 11.2335C25.9387 11.1748 25.9601 11.1242 26.0027 11.0815C26.1414 10.9375 26.2294 10.7588 26.2667 10.5455C26.1494 10.5348 26.0507 10.4922 25.9707 10.4175C25.8961 10.3375 25.8587 10.2362 25.8587 10.1135C25.8587 9.98015 25.8987 9.87082 25.9787 9.78548C26.0641 9.70015 26.1681 9.65748 26.2907 9.65748ZM31.4788 8.75348C31.5748 8.75348 31.6495 8.78015 31.7028 8.83348C31.7562 8.88148 31.7828 8.94548 31.7828 9.02548C31.7828 9.20682 31.6815 9.29748 31.4788 9.29748H30.8788V10.2255C30.8788 10.3322 30.8468 10.4148 30.7828 10.4735C30.7242 10.5322 30.6468 10.5615 30.5508 10.5615C30.4548 10.5615 30.3775 10.5322 30.3188 10.4735C30.2602 10.4148 30.2308 10.3322 30.2308 10.2255V9.29748H27.8628C27.7668 9.29748 27.6922 9.27082 27.6388 9.21748C27.5855 9.16415 27.5588 9.09748 27.5588 9.01748C27.5588 8.94282 27.5882 8.86015 27.6468 8.76948L30.2628 4.98548C30.3375 4.88948 30.4335 4.84148 30.5508 4.84148C30.6415 4.84148 30.7188 4.87082 30.7828 4.92948C30.8468 4.98815 30.8788 5.07082 30.8788 5.17748V8.75348H31.4788ZM28.3028 8.75348H30.2308V5.97748L28.3028 8.75348ZM35.9477 9.96948C36.0437 9.96948 36.1184 9.99348 36.1717 10.0415C36.2251 10.0895 36.2517 10.1562 36.2517 10.2415C36.2517 10.3322 36.2251 10.4015 36.1717 10.4495C36.1237 10.4975 36.0491 10.5215 35.9477 10.5215H33.2997C33.1984 10.5215 33.1211 10.4975 33.0677 10.4495C33.0197 10.4015 32.9957 10.3322 32.9957 10.2415C32.9957 10.1562 33.0224 10.0895 33.0757 10.0415C33.1291 9.99348 33.2037 9.96948 33.2997 9.96948H34.2917V5.68148L33.4197 6.24948C33.3771 6.27615 33.3344 6.28948 33.2917 6.28948C33.2171 6.28948 33.1504 6.25482 33.0917 6.18548C33.0384 6.11615 33.0117 6.04148 33.0117 5.96148C33.0117 5.84948 33.0544 5.76948 33.1397 5.72148L34.3557 4.92948C34.4464 4.87082 34.5397 4.84148 34.6357 4.84148C34.7264 4.84148 34.8011 4.87082 34.8597 4.92948C34.9184 4.98815 34.9477 5.07082 34.9477 5.17748V9.96948H35.9477ZM39.2326 10.4815C39.1633 10.5988 39.0753 10.6575 38.9686 10.6575C38.8993 10.6575 38.8379 10.6335 38.7846 10.5855C38.7366 10.5375 38.7126 10.4735 38.7126 10.3935C38.7126 10.3295 38.7313 10.2682 38.7686 10.2095L41.8246 4.92148C41.8939 4.80415 41.9819 4.74548 42.0886 4.74548C42.1579 4.74548 42.2166 4.77215 42.2646 4.82548C42.3179 4.87348 42.3446 4.93482 42.3446 5.00948C42.3446 5.06815 42.3286 5.12948 42.2966 5.19348L39.2326 10.4815ZM38.6086 8.26548C38.1819 8.26548 37.8486 8.12148 37.6086 7.83348C37.3686 7.54015 37.2486 7.10815 37.2486 6.53748C37.2486 5.97215 37.3686 5.54548 37.6086 5.25748C37.8486 4.96415 38.1819 4.81748 38.6086 4.81748C39.0353 4.81748 39.3686 4.96415 39.6086 5.25748C39.8486 5.54548 39.9686 5.97215 39.9686 6.53748C39.9686 7.10815 39.8486 7.54015 39.6086 7.83348C39.3686 8.12148 39.0353 8.26548 38.6086 8.26548ZM38.6086 7.80148C38.8699 7.80148 39.0619 7.70015 39.1846 7.49748C39.3126 7.29482 39.3766 6.97482 39.3766 6.53748C39.3766 6.10548 39.3126 5.78815 39.1846 5.58548C39.0619 5.38282 38.8699 5.28148 38.6086 5.28148C38.3473 5.28148 38.1526 5.38282 38.0246 5.58548C37.8966 5.78815 37.8326 6.10548 37.8326 6.53748C37.8326 6.97482 37.8966 7.29482 38.0246 7.49748C38.1526 7.70015 38.3473 7.80148 38.6086 7.80148ZM42.4486 10.5775C42.0219 10.5775 41.6886 10.4335 41.4486 10.1455C41.2086 9.85215 41.0886 9.42015 41.0886 8.84948C41.0886 8.28415 41.2086 7.85748 41.4486 7.56948C41.6886 7.27615 42.0219 7.12948 42.4486 7.12948C42.8806 7.12948 43.2139 7.27348 43.4486 7.56148C43.6886 7.84948 43.8086 8.27882 43.8086 8.84948C43.8086 9.42015 43.6886 9.85215 43.4486 10.1455C43.2139 10.4335 42.8806 10.5775 42.4486 10.5775ZM42.4486 10.1135C42.7153 10.1135 42.9099 10.0148 43.0326 9.81748C43.1606 9.61482 43.2246 9.29215 43.2246 8.84948C43.2246 8.41748 43.1606 8.10015 43.0326 7.89748C42.9046 7.69482 42.7099 7.59348 42.4486 7.59348C42.1873 7.59348 41.9926 7.69482 41.8646 7.89748C41.7419 8.10015 41.6806 8.41748 41.6806 8.84948C41.6806 9.28682 41.7419 9.60682 41.8646 9.80948C41.9926 10.0122 42.1873 10.1135 42.4486 10.1135Z" fill="#FF9138"/>
</svg>
