<svg width="28" height="28" viewBox="0 0 28 28" fill="none" xmlns="http://www.w3.org/2000/svg">
<path d="M18.8883 2.33325H9.11159C4.86492 2.33325 2.33325 4.86492 2.33325 9.11159V18.8766C2.33325 23.1349 4.86492 25.6666 9.11159 25.6666H18.8766C23.1233 25.6666 25.6549 23.1349 25.6549 18.8883V9.11159C25.6666 4.86492 23.1349 2.33325 18.8883 2.33325ZM18.6666 14.8749H14.8749V18.6666C14.8749 19.1449 14.4783 19.5416 13.9999 19.5416C13.5216 19.5416 13.1249 19.1449 13.1249 18.6666V14.8749H9.33325C8.85492 14.8749 8.45825 14.4783 8.45825 13.9999C8.45825 13.5216 8.85492 13.1249 9.33325 13.1249H13.1249V9.33325C13.1249 8.85492 13.5216 8.45825 13.9999 8.45825C14.4783 8.45825 14.8749 8.85492 14.8749 9.33325V13.1249H18.6666C19.1449 13.1249 19.5416 13.5216 19.5416 13.9999C19.5416 14.4783 19.1449 14.8749 18.6666 14.8749Z" fill="#FF9138"/>
</svg>
