<svg width="49" height="48" viewBox="0 0 49 48" fill="none" xmlns="http://www.w3.org/2000/svg">
<circle opacity="0.15" cx="24.75" cy="24" r="23" fill="#35C75A" stroke="#35C75A" stroke-width="2"/>
<g clip-path="url(#clip0_1_2786)">
<path d="M29.031 22.7189C29.1008 22.7885 29.1562 22.8713 29.194 22.9624C29.2318 23.0535 29.2513 23.1512 29.2513 23.2499C29.2513 23.3485 29.2318 23.4462 29.194 23.5373C29.1562 23.6284 29.1008 23.7112 29.031 23.7809L24.531 28.2809C24.4613 28.3507 24.3785 28.4061 24.2874 28.4439C24.1963 28.4818 24.0986 28.5012 24 28.5012C23.9013 28.5012 23.8036 28.4818 23.7125 28.4439C23.6214 28.4061 23.5386 28.3507 23.469 28.2809L21.219 26.0309C21.1492 25.9611 21.0939 25.8784 21.0562 25.7873C21.0184 25.6961 20.999 25.5985 20.999 25.4999C20.999 25.4013 21.0184 25.3036 21.0562 25.2125C21.0939 25.1214 21.1492 25.0386 21.219 24.9689C21.3598 24.828 21.5508 24.7489 21.75 24.7489C21.8486 24.7489 21.9462 24.7684 22.0373 24.8061C22.1285 24.8438 22.2112 24.8991 22.281 24.9689L24 26.6894L27.969 22.7189C28.0386 22.649 28.1214 22.5936 28.2125 22.5558C28.3036 22.518 28.4013 22.4985 28.5 22.4985C28.5986 22.4985 28.6963 22.518 28.7874 22.5558C28.8785 22.5936 28.9613 22.649 29.031 22.7189Z" fill="#35C75A"/>
<path d="M18 12C18.1989 12 18.3897 12.079 18.5303 12.2197C18.671 12.3603 18.75 12.5511 18.75 12.75V13.5H30.75V12.75C30.75 12.5511 30.829 12.3603 30.9697 12.2197C31.1103 12.079 31.3011 12 31.5 12C31.6989 12 31.8897 12.079 32.0303 12.2197C32.171 12.3603 32.25 12.5511 32.25 12.75V13.5H33.75C34.5456 13.5 35.3087 13.8161 35.8713 14.3787C36.4339 14.9413 36.75 15.7044 36.75 16.5V33C36.75 33.7956 36.4339 34.5587 35.8713 35.1213C35.3087 35.6839 34.5456 36 33.75 36H15.75C14.9544 36 14.1913 35.6839 13.6287 35.1213C13.0661 34.5587 12.75 33.7956 12.75 33V16.5C12.75 15.7044 13.0661 14.9413 13.6287 14.3787C14.1913 13.8161 14.9544 13.5 15.75 13.5H17.25V12.75C17.25 12.5511 17.329 12.3603 17.4697 12.2197C17.6103 12.079 17.8011 12 18 12V12ZM14.25 18V33C14.25 33.3978 14.408 33.7794 14.6893 34.0607C14.9706 34.342 15.3522 34.5 15.75 34.5H33.75C34.1478 34.5 34.5294 34.342 34.8107 34.0607C35.092 33.7794 35.25 33.3978 35.25 33V18H14.25Z" fill="#35C75A"/>
</g>
<defs>
<clipPath id="clip0_1_2786">
<rect width="24" height="24" fill="white" transform="translate(12.75 12)"/>
</clipPath>
</defs>
</svg>
