<svg width="32" height="32" viewBox="0 0 32 32" fill="none" xmlns="http://www.w3.org/2000/svg">
<rect width="32" height="32" rx="16" fill="#FFF2E7"/>
<path d="M22.1168 18.0748L21.2834 16.6915C21.1084 16.3832 20.9501 15.7998 20.9501 15.4582V13.3498C20.9501 11.3915 19.8001 9.69984 18.1418 8.90817C17.7084 8.1415 16.9084 7.6665 15.9918 7.6665C15.0834 7.6665 14.2668 8.15817 13.8334 8.93317C12.2084 9.7415 11.0834 11.4165 11.0834 13.3498V15.4582C11.0834 15.7998 10.9251 16.3832 10.7501 16.6832L9.90845 18.0748C9.57512 18.6332 9.50012 19.2498 9.70845 19.8165C9.90845 20.3748 10.3834 20.8082 11.0001 21.0165C12.6168 21.5665 14.3168 21.8332 16.0168 21.8332C17.7168 21.8332 19.4168 21.5665 21.0335 21.0248C21.6168 20.8332 22.0668 20.3915 22.2835 19.8165C22.5001 19.2415 22.4418 18.6082 22.1168 18.0748Z" fill="#FFAC6A"/>
<path d="M18.3582 22.6748C18.0082 23.6415 17.0832 24.3332 15.9999 24.3332C15.3416 24.3332 14.6916 24.0665 14.2332 23.5915C13.9666 23.3415 13.7666 23.0082 13.6499 22.6665C13.7582 22.6832 13.8666 22.6915 13.9832 22.7082C14.1749 22.7332 14.3749 22.7582 14.5749 22.7748C15.0499 22.8165 15.5332 22.8415 16.0166 22.8415C16.4916 22.8415 16.9666 22.8165 17.4332 22.7748C17.6082 22.7582 17.7832 22.7498 17.9499 22.7248C18.0832 22.7082 18.2166 22.6915 18.3582 22.6748Z" fill="#FFAC6A"/>
</svg>
