<svg width="20" height="20" viewBox="0 0 20 20" fill="none" xmlns="http://www.w3.org/2000/svg">
<path d="M8.68581 18.0432L8.68305 18.0416L4.11496 15.4088C3.16178 14.7658 2.78261 14.4688 2.59076 14.1384C2.40775 13.8232 2.3667 13.4253 2.3667 12.4082V7.5915C2.3667 6.5729 2.40562 6.17393 2.58452 5.85976C2.77035 5.53343 3.13837 5.24127 4.07397 4.60717L8.67512 1.94947L8.6762 1.94884C9.02138 1.74831 9.49266 1.63525 9.98753 1.63525C10.4824 1.63525 10.9537 1.74831 11.2989 1.94884L11.3004 1.94975L15.8851 4.59093C16.8383 5.23388 17.2175 5.53091 17.4093 5.86132C17.5923 6.17651 17.6334 6.57435 17.6334 7.5915V12.3998C17.6334 13.4184 17.5944 13.8174 17.4155 14.1316C17.2297 14.4579 16.8617 14.7501 15.9261 15.3842L11.3261 18.0412C11.3259 18.0413 11.3257 18.0414 11.3255 18.0415C10.967 18.2472 10.4907 18.3582 10 18.3582C9.50802 18.3582 9.03362 18.2467 8.68581 18.0432ZM4.2331 4.81698L4.21807 4.82567L4.20367 4.83538L4.18755 4.84626C3.86167 5.06617 3.59379 5.24695 3.38779 5.40998C3.17519 5.57823 2.99258 5.75461 2.86232 5.97916C2.72905 6.20891 2.67398 6.44827 2.64868 6.70417C2.62501 6.94365 2.62502 7.23185 2.62503 7.56842L2.62503 7.5915V12.3998L2.62503 12.4233C2.62502 12.7595 2.62501 13.0482 2.64931 13.2887C2.67536 13.5463 2.73206 13.7867 2.86798 14.0179C3.00034 14.243 3.18564 14.421 3.40209 14.5921C3.6124 14.7583 3.88617 14.9436 4.22058 15.1698L4.23649 15.1806L4.25133 15.1906L4.26684 15.1996L8.81684 17.8246L8.81705 17.8247C9.163 18.0241 9.60367 18.104 10.0042 18.104C10.4047 18.104 10.8454 18.0241 11.1913 17.8247L11.192 17.8244L15.7753 15.1744L15.791 15.1653L15.8059 15.1552L15.822 15.1442C16.1458 14.9243 16.4122 14.7435 16.617 14.5804C16.8285 14.412 17.01 14.2355 17.1395 14.011C17.2718 13.7815 17.3264 13.5425 17.3515 13.2869C17.3751 13.0475 17.375 12.7595 17.375 12.4228V12.3998V7.5915V7.56807C17.375 7.2318 17.3751 6.9431 17.3508 6.70267C17.3247 6.44503 17.268 6.20463 17.1321 5.97348C16.9997 5.74839 16.8144 5.57033 16.598 5.39924C16.3877 5.233 16.1139 5.04775 15.7794 4.82146L15.7636 4.81073L15.7487 4.80069L15.7332 4.79174L11.1862 2.16849C11.1857 2.16818 11.1852 2.16787 11.1846 2.16756C10.8382 1.96503 10.3984 1.8915 10 1.8915C9.60159 1.8915 9.16173 1.96506 8.81527 2.16765L4.2331 4.81698Z" stroke="#A9A9B0"/>
<path d="M10 12.625C8.55114 12.625 7.375 11.4489 7.375 10C7.375 8.55114 8.55114 7.375 10 7.375C11.4489 7.375 12.625 8.55114 12.625 10C12.625 11.4489 11.4489 12.625 10 12.625ZM10 7.625C8.69052 7.625 7.625 8.69052 7.625 10C7.625 11.3095 8.69052 12.375 10 12.375C11.3095 12.375 12.375 11.3095 12.375 10C12.375 8.69052 11.3095 7.625 10 7.625Z" fill="#292D32" stroke="#A9A9B0"/>
</svg>
